<svg width="24" height="24" viewBox="0 0 24 24" fill="none" xmlns="http://www.w3.org/2000/svg">
<circle cx="12" cy="12" r="12" fill="#FFD600"/>
<path d="M18.1918 12.8167C18.2251 12.55 18.2501 12.2833 18.2501 12C18.2501 11.7167 18.2251 11.45 18.1918 11.1833L19.9501 9.80834C20.1084 9.68334 20.1501 9.45834 20.0501 9.275L18.3834 6.39167C18.3084 6.25834 18.1668 6.18334 18.0168 6.18334C17.9668 6.18334 17.9168 6.19167 17.8751 6.20834L15.8001 7.04167C15.3668 6.70834 14.9001 6.43334 14.3918 6.22501L14.0751 4.01667C14.0501 3.81667 13.8751 3.66667 13.6668 3.66667H10.3334C10.1251 3.66667 9.95011 3.81667 9.92511 4.01667L9.60844 6.22501C9.10011 6.43334 8.63344 6.71667 8.20011 7.04167L6.12511 6.20834C6.07511 6.19167 6.02511 6.18334 5.97511 6.18334C5.83344 6.18334 5.69178 6.25834 5.61678 6.39167L3.95011 9.275C3.84178 9.45834 3.89178 9.68334 4.05011 9.80834L5.80844 11.1833C5.77511 11.45 5.75011 11.725 5.75011 12C5.75011 12.275 5.77511 12.55 5.80844 12.8167L4.05011 14.1917C3.89178 14.3167 3.85011 14.5417 3.95011 14.725L5.61678 17.6083C5.69178 17.7417 5.83344 17.8167 5.98344 17.8167C6.03344 17.8167 6.08344 17.8083 6.12511 17.7917L8.20011 16.9583C8.63344 17.2917 9.10011 17.5667 9.60844 17.775L9.92511 19.9833C9.95011 20.1833 10.1251 20.3333 10.3334 20.3333H13.6668C13.8751 20.3333 14.0501 20.1833 14.0751 19.9833L14.3918 17.775C14.9001 17.5667 15.3668 17.2833 15.8001 16.9583L17.8751 17.7917C17.9251 17.8083 17.9751 17.8167 18.0251 17.8167C18.1668 17.8167 18.3084 17.7417 18.3834 17.6083L20.0501 14.725C20.1501 14.5417 20.1084 14.3167 19.9501 14.1917L18.1918 12.8167ZM16.5418 11.3917C16.5751 11.65 16.5834 11.825 16.5834 12C16.5834 12.175 16.5668 12.3583 16.5418 12.6083L16.4251 13.55L17.1668 14.1333L18.0668 14.8333L17.4834 15.8417L16.4251 15.4167L15.5584 15.0667L14.8084 15.6333C14.4501 15.9 14.1084 16.1 13.7668 16.2417L12.8834 16.6L12.7501 17.5417L12.5834 18.6667H11.4168L11.2584 17.5417L11.1251 16.6L10.2418 16.2417C9.88344 16.0917 9.55011 15.9 9.21678 15.65L8.45844 15.0667L7.57511 15.425L6.51678 15.85L5.93344 14.8417L6.83344 14.1417L7.57511 13.5583L7.45844 12.6167C7.43344 12.3583 7.41678 12.1667 7.41678 12C7.41678 11.8333 7.43344 11.6417 7.45844 11.3917L7.57511 10.45L6.83344 9.86667L5.93344 9.16667L6.51678 8.15834L7.57511 8.58334L8.44178 8.93334L9.19178 8.36667C9.55011 8.10001 9.89178 7.90001 10.2334 7.75834L11.1168 7.40001L11.2501 6.45834L11.4168 5.33334H12.5751L12.7334 6.45834L12.8668 7.40001L13.7501 7.75834C14.1084 7.90834 14.4418 8.10001 14.7751 8.35001L15.5334 8.93334L16.4168 8.57501L17.4751 8.15001L18.0584 9.15834L17.1668 9.86667L16.4251 10.45L16.5418 11.3917ZM12.0001 8.66667C10.1584 8.66667 8.66678 10.1583 8.66678 12C8.66678 13.8417 10.1584 15.3333 12.0001 15.3333C13.8418 15.3333 15.3334 13.8417 15.3334 12C15.3334 10.1583 13.8418 8.66667 12.0001 8.66667ZM12.0001 13.6667C11.0834 13.6667 10.3334 12.9167 10.3334 12C10.3334 11.0833 11.0834 10.3333 12.0001 10.3333C12.9168 10.3333 13.6668 11.0833 13.6668 12C13.6668 12.9167 12.9168 13.6667 12.0001 13.6667Z" fill="midnightblue"/>
</svg>
