<svg width="56" height="56" viewBox="0 0 56 56" fill="none" xmlns="http://www.w3.org/2000/svg">
<path d="M28.0001 4.66666C15.1201 4.66666 4.66675 15.12 4.66675 28C4.66675 40.88 15.1201 51.3333 28.0001 51.3333C40.8801 51.3333 51.3334 40.88 51.3334 28C51.3334 15.12 40.8801 4.66666 28.0001 4.66666ZM28.0001 11.6667C31.8734 11.6667 35.0001 14.7933 35.0001 18.6667C35.0001 22.54 31.8734 25.6667 28.0001 25.6667C24.1267 25.6667 21.0001 22.54 21.0001 18.6667C21.0001 14.7933 24.1267 11.6667 28.0001 11.6667ZM28.0001 44.8C22.1667 44.8 17.0101 41.8133 14.0001 37.2867C14.0701 32.6433 23.3334 30.1 28.0001 30.1C32.6434 30.1 41.9301 32.6433 42.0001 37.2867C38.9901 41.8133 33.8334 44.8 28.0001 44.8Z" fill="midnightblue"/>
</svg>
