<svg width="48" height="48" viewBox="0 0 48 48" fill="none" xmlns="http://www.w3.org/2000/svg">
<path d="M24 3.99988C12.96 3.99988 4 12.9599 4 23.9999C4 35.0399 12.96 43.9999 24 43.9999C35.04 43.9999 44 35.0399 44 23.9999C44 12.9599 35.04 3.99988 24 3.99988ZM24 9.99988C27.32 9.99988 30 12.6799 30 15.9999C30 19.3199 27.32 21.9999 24 21.9999C20.68 21.9999 18 19.3199 18 15.9999C18 12.6799 20.68 9.99988 24 9.99988ZM24 38.3999C19 38.3999 14.58 35.8399 12 31.9599C12.06 27.9799 20 25.7999 24 25.7999C27.98 25.7999 35.94 27.9799 36 31.9599C33.42 35.8399 29 38.3999 24 38.3999Z" fill="midnightblue"/>
</svg>
