<svg width="120" height="24" viewBox="0 0 120 24" fill="none" xmlns="http://www.w3.org/2000/svg">
<path d="M12 2L14.2451 8.90983H21.5106L15.6327 13.1803L17.8779 20.0902L12 15.8197L6.12215 20.0902L8.36729 13.1803L2.48944 8.90983H9.75486L12 2Z" fill="#BDBDBD"/>
<path d="M36 2L38.2451 8.90983H45.5106L39.6327 13.1803L41.8779 20.0902L36 15.8197L30.1221 20.0902L32.3673 13.1803L26.4894 8.90983H33.7549L36 2Z" fill="#BDBDBD"/>
<path d="M60 2L62.2451 8.90983H69.5106L63.6327 13.1803L65.8779 20.0902L60 15.8197L54.1221 20.0902L56.3673 13.1803L50.4894 8.90983H57.7549L60 2Z" fill="#BDBDBD"/>
<path d="M84 2L86.2451 8.90983H93.5106L87.6327 13.1803L89.8779 20.0902L84 15.8197L78.1221 20.0902L80.3673 13.1803L74.4894 8.90983H81.7549L84 2Z" fill="#BDBDBD"/>
<path d="M108 2L110.245 8.90983H117.511L111.633 13.1803L113.878 20.0902L108 15.8197L102.122 20.0902L104.367 13.1803L98.4894 8.90983H105.755L108 2Z" fill="#BDBDBD"/>
</svg>
